<?xml version="1.0" encoding="UTF-8"?><svg id="a" xmlns="http://www.w3.org/2000/svg" xmlns:xlink="http://www.w3.org/1999/xlink" viewBox="0 0 50 50"><defs><style>.c{stroke:url(#b);}.c,.d{fill:none;stroke-linecap:round;stroke-linejoin:round;stroke-width:1.5px;}.d{stroke:#fff;}</style><linearGradient id="b" x1="-649.7598" y1=".3821" x2="-671.4929" y2="38.025" gradientTransform="translate(-640.0937) rotate(-180) scale(1 -1)" gradientUnits="userSpaceOnUse"><stop offset="0" stop-color="#da54d8"/><stop offset=".5049" stop-color="#0092f4"/><stop offset=".9972" stop-color="#20dc86"/></linearGradient></defs><path class="c" d="M14.415,3.5712h12.4062V12.2503c0,3.0111-2.0003,5.8002-4.9523,6.3941-3.9742,.7995-7.4539-2.3138-7.4539-6.2644V3.5712Zm12.4062,9.0227c0,3.5293,2.7452,6.1765,6.2746,6.1765,3.5293,0,6.3904-2.824,6.3904-6.3904s-.6548-8.8088-5.1708-8.8088h-7.4942m-12.4062,0H6.9208c-4.516,0-5.1708,5.2424-5.1708,8.8088s2.8611,6.3904,6.3904,6.3904,6.2746-2.6472,6.2746-6.1765m11.2783,20.301l-.053-6.2486c0-.9092-.7106-1.6462-1.5871-1.6462h-5.7954c-.8765,0-1.5871,.737-1.5871,1.6462l.053,6.2486m20.248-10.66v11.7069M4.2645,22.2348v11.8789c0,1.8184,1.4741,3.2924,3.2924,3.2924h3.3936"/><g><g><path class="d" d="M41.483,43.8812c-.0032,1.7399-.7776,2.5443-2.4526,2.5476h-3.1866v-9.0227h3.1866c1.6736,.0066,2.4462,.8092,2.4526,2.5476v3.9274Z"/><line class="d" x1="42.6108" y1="41.9175" x2="48.25" y2="41.9175"/></g><g><path class="d" d="M18.9263,43.8812c.0032,1.7399,.7776,2.5443,2.4526,2.5476h3.1866v-9.0227h-3.1866c-1.6736,.0066-2.4462,.8092-2.4526,2.5476v3.9274Z"/><line class="d" x1="13.2872" y1="41.9175" x2="18.9263" y2="41.9175"/></g><line class="d" x1="27.949" y1="39.6618" x2="31.3325" y2="39.6618"/><line class="d" x1="27.949" y1="43.0453" x2="31.3325" y2="43.0453"/></g></svg>